<?xml version="1.0" standalone="no"?>
<!DOCTYPE svg PUBLIC "-//W3C//DTD SVG 20010904//EN"
 "http://www.w3.org/TR/2001/REC-SVG-20010904/DTD/svg10.dtd">
<svg version="1.0" xmlns="http://www.w3.org/2000/svg"
 width="32.000000pt" height="32.000000pt" viewBox="0 0 32.000000 32.000000"
 preserveAspectRatio="xMidYMid meet">
<metadata>
Created by potrace 1.16, written by Peter Selinger 2001-2019
</metadata>
<g transform="translate(0.000000,32.000000) scale(0.003556,-0.003265)"
fill="#000000" stroke="none">
<path d="M4260 9793 c-210 -20 -270 -27 -370 -44 -810 -137 -1535 -558 -2068
-1201 -378 -456 -654 -1042 -771 -1639 -151 -771 -78 -1426 254 -2274 458
-1168 1427 -2638 2711 -4110 162 -186 407 -456 448 -494 l26 -25 31 30 c91 86
530 583 795 899 1377 1647 2304 3208 2594 4365 86 345 113 548 113 855 -1 594
-131 1153 -392 1675 -569 1138 -1635 1863 -2885 1960 -119 9 -404 11 -486 3z
m496 -614 c144 -14 371 -59 519 -104 894 -271 1645 -1024 1974 -1977 54 -158
106 -369 133 -541 18 -118 22 -185 22 -392 1 -217 -2 -266 -22 -375 -101 -556
-354 -1171 -809 -1963 -473 -825 -1207 -1863 -1952 -2761 l-115 -139 -34 39
c-153 175 -553 679 -810 1021 -1150 1531 -1859 2843 -2027 3749 -140 758 110
1653 656 2344 157 200 418 450 614 589 422 299 846 459 1365 514 80 9 384 6
486 -4z"/>
<path d="M4378 7660 c-179 -17 -346 -65 -505 -146 -379 -192 -644 -541 -735
-967 -28 -136 -30 -378 -4 -517 72 -373 287 -699 596 -905 691 -459 1628 -215
2002 522 111 217 151 386 151 633 0 131 -4 186 -21 267 -92 428 -350 770 -730
967 -220 113 -506 169 -754 146z m374 -657 c120 -42 221 -107 309 -201 88 -93
131 -163 170 -274 141 -412 -77 -851 -490 -987 -349 -114 -737 42 -914 369
-124 228 -120 527 10 750 75 128 227 264 361 322 108 46 179 58 327 55 126 -3
149 -6 227 -34z"/>
</g>
</svg>
